# xmcd
#
# Track frame offsets: 
#        150
#        13870
#        24013
#        40157
#        57680
#        73357
#        89985
#        103605
#        124940
#        140961
#        155414
#        176223
#
# Disc length: 2677 seconds
#
# Revision: 0
# Processed by: cddbd v1.5.2PL0 Copyright (c) Steve Scherf et al.
# Submitted via: ExactAudioCopy v0.95b4
#
DISCID=b80a730c
DTITLE=Forbes Brothers - The Wrong End of the Bar
DYEAR=2002
DGENRE=Country
TTITLE0=Opening Act
TTITLE1=Two-Step
TTITLE2=I've Been Travellin'
TTITLE3=Hip Hop Country Rock
TTITLE4=Tell Me
TTITLE5=Maybe Just Once
TTITLE6=Don't Want to be Important Anymore
TTITLE7=The Wrong End of the Bar
TTITLE8=Last Lost Highway
TTITLE9=Lovers in Dreams
TTITLE10=The Difference
TTITLE11=Over Again
EXTD=
EXTT0=
EXTT1=
EXTT2=
EXTT3=
EXTT4=
EXTT5=
EXTT6=
EXTT7=
EXTT8=
EXTT9=
EXTT10=
EXTT11=
PLAYORDER=
